<svg width="75" height="75" viewBox="0 0 75 75" fill="none" xmlns="http://www.w3.org/2000/svg">
<path d="M33.1325 5.86099C32.8842 5.92093 31.6641 6.13501 30.4216 6.33638C7.08536 10.1215 -3.95234 38.5867 10.4949 57.725C14.994 63.6848 25.326 70.4333 25.8377 67.7463C25.9018 67.4106 25.2867 66.986 23.7602 66.3119C17.4974 63.5457 11.8301 58.0961 8.73802 51.867C-2.49249 29.2436 16.7217 3.64229 41.8124 7.798C45.5816 8.42251 46.2362 7.12093 42.5423 6.34642C40.861 5.99386 34.0396 5.64219 33.1325 5.86129V5.86099ZM33.2831 12.5322C28.8708 13.1823 23.1929 15.4415 23.1929 16.547C23.1929 17.4048 23.8301 17.3384 26.159 16.2379C38.9152 10.211 54.4455 16.8054 59.0663 30.2109C66.7467 52.4933 41.3917 71.3555 22.1388 57.6816C11.4404 50.0832 8.97335 34.9914 16.6535 24.1244C18.6915 21.2407 17.619 20.0215 15.5379 22.8565C2.71558 40.3244 16.1028 64.9973 37.7353 63.7657C59.5727 62.5226 70.0136 36.3556 54.9864 20.5318C49.4775 14.7308 40.5903 11.455 33.2834 12.5316L33.2831 12.5322ZM59.5381 16.4661C59.0902 16.914 59.4324 17.7157 60.8663 19.5786C71.4962 33.3886 68.0158 54.0311 53.4206 63.7427C46.8439 68.1187 41.0695 69.3317 30.2713 68.6056C29.2544 68.5371 29.0663 68.615 29.0663 69.1052C29.0663 71.3313 41.9911 70.7277 48.3994 68.2019C67.1908 60.7961 74.5998 36.89 63.2728 20.2105C61.1234 17.0457 60.0424 15.9618 59.5378 16.4664L59.5381 16.4661ZM27.5314 27.7424C26.9973 28.3324 26.9515 29.0242 26.8697 37.7401C26.7354 52.069 25.3092 51.6358 42.6106 42.5209C51.0424 38.0785 51.0897 38.2179 38.9964 31.8742C29.5414 26.9144 28.5915 26.5719 27.5314 27.7424V27.7424ZM37.9803 33.1634C47.167 37.9616 47.2148 37.9914 46.5723 38.5247C45.8518 39.1229 29.4705 47.5908 29.0344 47.5908C28.6842 47.5908 28.6145 46.0161 28.6145 38.103C28.6145 31.4478 28.7128 28.6149 28.9434 28.6149C29.1241 28.6149 33.191 30.6618 37.9806 33.1634H37.9803Z" fill="white"/>
</svg>
